HIERARCHY
ROOT Hips
{
	OFFSET 0.000000 89.005402 0.000000
	CHANNELS 6 Xposition Yposition Zposition Xrotation Yrotation Zrotation
	JOINT Spine
	{
		OFFSET 0.116900 10.681000 0.373400
		CHANNELS 3 Xrotation Yrotation Zrotation
		JOINT Spine1
		{
			OFFSET 0.000000 13.840401 0.053500
			CHANNELS 3 Xrotation Yrotation Zrotation
			JOINT Spine2
			{
				OFFSET 0.000000 14.712700 -0.366200
				CHANNELS 3 Xrotation Yrotation Zrotation
				JOINT Neck
				{
					OFFSET 0.000000 35.415497 -3.314200
					CHANNELS 3 Xrotation Yrotation Zrotation
					JOINT Head
					{
						OFFSET 0.000000 16.899200 1.218300
						CHANNELS 3 Xrotation Yrotation Zrotation
						JOINT HeadTop_End
						{
							OFFSET 0.000000 22.206207 2.192500
							CHANNELS 3 Xrotation Yrotation Zrotation
							End Site
							{
								OFFSET 0.000000 22.314178 0.000000
							}
						}
					}
				}
				JOINT LeftShoulder
				{
					OFFSET 12.896400 26.716293 -4.548400
					CHANNELS 3 Xrotation Yrotation Zrotation
					JOINT LeftArm
					{
						OFFSET 19.027000 -4.857010 -1.718400
						CHANNELS 3 Xrotation Yrotation Zrotation
						JOINT LeftForeArm
						{
							OFFSET 24.179897 0.000000 0.000000
							CHANNELS 3 Xrotation Yrotation Zrotation
							JOINT LeftHand
							{
								OFFSET 27.156403 0.000000 0.000000
								CHANNELS 3 Xrotation Yrotation Zrotation
								JOINT LeftHandIndex1
								{
									OFFSET 16.441200 0.000000 0.000000
									CHANNELS 3 Xrotation Yrotation Zrotation
									JOINT LeftHandIndex2
									{
										OFFSET 4.821899 0.000000 0.000000
										CHANNELS 3 Xrotation Yrotation Zrotation
										JOINT LeftHandIndex3
										{
											OFFSET 6.386497 0.000000 0.000000
											CHANNELS 3 Xrotation Yrotation Zrotation
											JOINT LeftHandIndex4
											{
												OFFSET 5.188988 0.000000 0.000000
												CHANNELS 3 Xrotation Yrotation Zrotation
												End Site
												{
													OFFSET -0.178703 5.185913 0.000177
												}
											}
										}
									}
								}
								JOINT LeftHandThumb1
								{
									OFFSET 6.534897 -5.032593 5.900300
									CHANNELS 3 Xrotation Yrotation Zrotation
									JOINT LeftHandThumb2
									{
										OFFSET 3.818176 -2.204422 2.204423
										CHANNELS 3 Xrotation Yrotation Zrotation
										JOINT LeftHandThumb3
										{
											OFFSET 3.252098 -1.877594 1.877601
											CHANNELS 3 Xrotation Yrotation Zrotation
											JOINT LeftHandThumb4
											{
												OFFSET 5.251778 -3.032120 3.032117
												CHANNELS 3 Xrotation Yrotation Zrotation
												End Site
												{
													OFFSET 0.000023 6.780014 0.000000
												}
											}
										}
									}
								}
							}
						}
					}
				}
				JOINT RightShoulder
				{
					OFFSET -12.896300 26.716293 -4.548400
					CHANNELS 3 Xrotation Yrotation Zrotation
					JOINT RightArm
					{
						OFFSET -19.027000 -4.857010 -1.718400
						CHANNELS 3 Xrotation Yrotation Zrotation
						JOINT RightForeArm
						{
							OFFSET -24.179897 0.000000 0.000000
							CHANNELS 3 Xrotation Yrotation Zrotation
							JOINT RightHand
							{
								OFFSET -27.156403 0.000000 0.000000
								CHANNELS 3 Xrotation Yrotation Zrotation
								JOINT RightHandThumb1
								{
									OFFSET -6.591202 -4.852203 5.988100
									CHANNELS 3 Xrotation Yrotation Zrotation
									JOINT RightHandThumb2
									{
										OFFSET -3.818176 -2.204422 2.204423
										CHANNELS 3 Xrotation Yrotation Zrotation
										JOINT RightHandThumb3
										{
											OFFSET -3.252098 -1.877594 1.877601
											CHANNELS 3 Xrotation Yrotation Zrotation
											JOINT RightHandThumb4
											{
												OFFSET -5.251778 -3.032120 3.032117
												CHANNELS 3 Xrotation Yrotation Zrotation
												End Site
												{
													OFFSET -0.000023 6.780014 0.000000
												}
											}
										}
									}
								}
								JOINT RightHandIndex1
								{
									OFFSET -16.029404 0.000000 0.000000
									CHANNELS 3 Xrotation Yrotation Zrotation
									JOINT RightHandIndex2
									{
										OFFSET -5.213303 0.000000 0.000000
										CHANNELS 3 Xrotation Yrotation Zrotation
										JOINT RightHandIndex3
										{
											OFFSET -6.386528 0.000000 0.000000
											CHANNELS 3 Xrotation Yrotation Zrotation
											JOINT RightHandIndex4
											{
												OFFSET -5.189026 0.000000 0.000000
												CHANNELS 3 Xrotation Yrotation Zrotation
												End Site
												{
													OFFSET 0.236702 5.183624 0.001972
												}
											}
										}
									}
								}
							}
						}
					}
				}
			}
		}
	}
	JOINT LeftUpLeg
	{
		OFFSET 14.073000 -7.904099 -1.463000
		CHANNELS 3 Xrotation Yrotation Zrotation
		JOINT LeftLeg
		{
			OFFSET -0.109806 -34.073280 4.093200
			CHANNELS 3 Xrotation Yrotation Zrotation
			JOINT LeftFoot
			{
				OFFSET 0.109806 -29.899420 -6.319000
				CHANNELS 3 Xrotation Yrotation Zrotation
				JOINT LeftToeBase
				{
					OFFSET 1.551100 -14.988700 20.535801
					CHANNELS 3 Xrotation Yrotation Zrotation
					JOINT LeftToe_End
					{
						OFFSET 0.221200 0.570800 13.248301
						CHANNELS 3 Xrotation Yrotation Zrotation
						End Site
						{
							OFFSET 0.000000 13.262435 0.000000
						}
					}
				}
			}
		}
	}
	JOINT RightUpLeg
	{
		OFFSET -13.839300 -7.904099 -1.463000
		CHANNELS 3 Xrotation Yrotation Zrotation
		JOINT RightLeg
		{
			OFFSET 0.109694 -34.073219 4.093300
			CHANNELS 3 Xrotation Yrotation Zrotation
			JOINT RightFoot
			{
				OFFSET -0.109694 -29.899384 -6.319200
				CHANNELS 3 Xrotation Yrotation Zrotation
				JOINT RightToeBase
				{
					OFFSET -1.551100 -14.988700 20.535801
					CHANNELS 3 Xrotation Yrotation Zrotation
					JOINT RightToe_End
					{
						OFFSET -0.221200 0.570900 13.248299
						CHANNELS 3 Xrotation Yrotation Zrotation
						End Site
						{
							OFFSET 0.000000 13.262440 0.000000
						}
					}
				}
			}
		}
	}
}
MOTION
Frames: 8
Frame Time: 0.033333
-5.361589 82.107170 -1.222521 -75.920305 -114.116963 -73.463705 12.506485 2.176116 1.248906 11.401934 1.499433 0.542172 11.413367 1.405988 0.545417 3.884842 -0.697486 0.035964 12.395630 -4.686512 7.265601 0.000000 -0.000000 0.000000 -8.316179 -27.301038 -21.227442 -23.230472 -29.514999 -60.088302 -0.000002 -35.078393 -0.000016 -40.177884 31.140803 30.823988 16.438510 15.692737 -58.590503 7.457600 5.626927 -105.962776 3.796157 5.479537 -69.406422 0.000001 0.000002 0.000001 -18.376933 -0.511505 -4.477299 15.742309 2.027047 9.774910 -19.014278 -4.196079 2.297151 -0.000000 0.000001 -0.000001 -8.388616 27.180132 25.050615 -38.609707 28.361749 56.997512 0.000002 4.026382 -0.000002 -50.405502 -12.278381 -8.539844 1.781171 9.260707 -10.424135 -5.645314 -9.781762 3.760279 2.033489 5.579502 -14.139552 -0.000000 -0.000001 -0.000001 -4.967668 -4.989131 77.932950 4.257384 -4.640013 85.070218 1.904942 -3.758394 53.744361 -0.000000 -0.000001 -0.000002 -48.453044 0.862798 5.863891 26.162795 -1.905268 0.784054 -1.456554 1.279469 -6.721429 -1.593177 5.208627 -3.602338 0.000000 -0.000000 0.000000 -45.661748 -2.735749 -13.108598 26.365778 5.186225 -4.052410 -4.661399 -0.343721 12.694692 -1.534738 -0.000040 0.000001 0.000000 -0.000000 0.000000 
-5.538319 82.032539 -2.013005 -77.013504 -113.625360 -74.523210 12.409287 2.126128 1.053645 11.918047 1.472320 0.259776 11.927992 1.396139 0.289210 3.770673 -0.736049 -0.277250 12.337684 -5.273976 7.155190 -0.000001 -0.000000 0.000001 -8.668565 -28.419623 -19.936374 -23.681980 -26.049153 -59.482014 -0.000009 -36.945921 -0.000025 -37.951950 33.295304 29.554065 16.438496 15.692732 -58.590497 7.457604 5.626931 -105.962756 3.796158 5.479521 -69.406422 -0.000001 0.000001 -0.000002 -18.376933 -0.511495 -4.477291 15.742338 2.027056 9.774917 -19.014296 -4.196081 2.297163 -0.000000 0.000000 -0.000003 -10.636911 30.903471 24.843894 -38.006239 23.103982 56.347469 -0.000018 7.142718 0.000013 -50.659807 -12.886952 -10.764590 1.781174 9.260705 -10.424133 -5.645308 -9.781775 3.760264 2.033469 5.579506 -14.139544 -0.000000 -0.000001 -0.000001 -4.967666 -4.989134 77.932950 4.257382 -4.640011 85.070218 1.904939 -3.758371 53.744358 0.000000 0.000002 -0.000001 -48.067176 1.016595 6.262931 26.289183 -2.065691 0.794349 -1.526639 1.257644 -7.035956 -1.593173 5.067229 -3.496932 0.000000 -0.000000 -0.000000 -45.506378 -2.590424 -12.729906 28.008070 4.669709 -4.048622 -5.987699 -0.470506 12.087536 -1.566402 0.000024 -0.000000 0.000000 0.000000 -0.000000 
-5.666742 82.010185 -2.877440 -77.804584 -113.133785 -75.269552 12.336180 2.104078 0.881051 12.476845 1.505478 0.015863 12.486469 1.446753 0.075249 3.660437 -0.810472 -0.606381 12.316015 -6.068277 7.120830 0.000000 0.000000 -0.000001 -8.917322 -29.746597 -18.368696 -24.372825 -22.884247 -59.477779 -0.000006 -38.941224 0.000002 -36.604066 35.209431 29.149881 16.438481 15.692746 -58.590483 7.457605 5.626930 -105.962756 3.796162 5.479527 -69.406415 -0.000000 0.000001 -0.000003 -18.376924 -0.511501 -4.477297 15.742312 2.027059 9.774934 -19.014285 -4.196072 2.297149 0.000000 0.000000 0.000001 -11.972555 33.604111 23.800214 -38.427266 18.329760 56.592407 -0.000000 10.141601 -0.000022 -50.220387 -13.814659 -12.536231 1.781170 9.260706 -10.424133 -5.645298 -9.781765 3.760246 2.033463 5.579503 -14.139526 0.000003 0.000001 0.000001 -4.967669 -4.989133 77.932950 4.257382 -4.640011 85.070218 1.904938 -3.758371 53.744351 -0.000000 0.000002 0.000002 -47.475494 1.093411 6.761314 26.102688 -2.058375 0.817365 -1.431923 1.270738 -7.521479 -1.568177 4.947005 -3.412156 0.000000 -0.000000 -0.000000 -45.246728 -2.435755 -12.194555 29.349012 4.211976 -4.056063 -7.100792 -0.556210 11.411506 -1.611611 -0.000050 -0.000001 0.000000 0.000000 0.000000 
-5.755577 82.026756 -3.799950 -78.237474 -112.634402 -75.653190 12.275400 2.094788 0.718009 13.057676 1.568961 -0.208682 13.067468 1.527835 -0.117453 3.551254 -0.902943 -0.943508 12.312368 -6.966681 7.126025 0.000001 -0.000000 0.000001 -9.202501 -31.183826 -16.928554 -24.873983 -19.813978 -59.716187 -0.000007 -41.575044 -0.000004 -36.015823 37.042650 29.766279 16.438505 15.692720 -58.590490 7.457591 5.626951 -105.962762 3.796176 5.479538 -69.406422 -0.000003 0.000002 0.000003 -18.376926 -0.511500 -4.477293 15.742316 2.027040 9.774933 -19.014292 -4.196061 2.297160 -0.000000 0.000000 0.000002 -12.119828 34.873232 21.543957 -40.402553 14.391753 58.295426 -0.000005 11.941198 -0.000004 -48.642039 -14.664939 -13.439089 1.781172 9.260705 -10.424133 -5.645309 -9.781770 3.760258 2.033480 5.579510 -14.139545 0.000001 0.000001 0.000000 -4.967665 -4.989133 77.932950 4.257381 -4.640014 85.070218 1.904949 -3.758384 53.744327 -0.000003 -0.000002 -0.000003 -46.707419 1.139790 7.346637 25.690423 -1.890008 0.874222 -1.216237 1.311505 -8.145850 -1.518412 4.824051 -3.332457 -0.000000 0.000000 0.000000 -44.876429 -2.237785 -11.528948 30.402705 3.761748 -4.054792 -8.004105 -0.604645 10.733906 -1.649551 0.000004 -0.000002 0.000000 -0.000001 -0.000000 
-5.799349 82.081337 -4.776130 -78.124107 -112.129679 -75.496540 12.214940 2.085066 0.553058 13.639366 1.632811 -0.432967 13.649412 1.609288 -0.309874 3.440686 -0.995597 -1.280774 12.307569 -7.866560 7.133505 -0.000000 -0.000000 0.000001 -9.480934 -32.740792 -15.537902 -25.229021 -17.139849 -59.973610 -0.000010 -44.324533 -0.000014 -36.370556 38.518200 31.074796 16.438517 15.692734 -58.590517 7.457606 5.626924 -105.962756 3.796162 5.479530 -69.406429 -0.000002 -0.000002 -0.000002 -18.376924 -0.511500 -4.477297 15.742338 2.027048 9.774936 -19.014302 -4.196078 2.297166 0.000000 0.000000 -0.000002 -11.526038 35.117424 18.716578 -42.898215 11.468174 60.501727 -0.000003 13.027991 0.000016 -46.699810 -15.488540 -13.837768 1.781172 9.260707 -10.424132 -5.645313 -9.781791 3.760253 2.033463 5.579505 -14.139552 -0.000000 -0.000000 0.000000 -4.967667 -4.989131 77.932957 4.257383 -4.640016 85.070218 1.904947 -3.758369 53.744354 0.000002 -0.000001 -0.000004 -45.766588 1.199554 8.085073 25.102475 -1.500972 0.884313 -0.888859 1.368162 -8.822643 -1.446767 4.608153 -3.188129 0.000000 -0.000000 0.000000 -44.370524 -1.982675 -10.685883 31.082565 3.447173 -4.122913 -8.640853 -0.621320 10.163936 -1.661314 0.000014 -0.000001 0.000000 -0.000000 -0.000000 
-5.797358 82.171158 -5.786427 -77.245574 -111.632011 -74.596075 12.142634 2.061129 0.374000 14.200395 1.667113 -0.676128 14.210573 1.661083 -0.523002 3.326735 -1.070588 -1.610279 12.280950 -8.665423 7.104951 -0.000001 -0.000000 -0.000000 -9.626167 -34.564329 -13.942053 -25.790941 -14.685643 -60.104804 -0.000010 -46.533809 -0.000022 -37.016606 39.904458 32.132994 16.438503 15.692735 -58.590490 7.457601 5.626930 -105.962749 3.796148 5.479530 -69.406429 -0.000001 -0.000002 0.000002 -18.376921 -0.511503 -4.477300 15.742328 2.027057 9.774921 -19.014282 -4.196095 2.297163 0.000000 -0.000001 -0.000002 -11.147173 35.416276 16.716582 -44.713072 8.695919 61.725376 0.000003 14.918269 0.000006 -45.072186 -16.848258 -14.688597 1.781174 9.260706 -10.424133 -5.645320 -9.781760 3.760262 2.033480 5.579514 -14.139554 0.000003 0.000000 0.000001 -4.967670 -4.989134 77.932950 4.257384 -4.640011 85.070218 1.904938 -3.758376 53.744334 0.000000 -0.000000 -0.000000 -44.649606 1.311285 9.037583 24.380849 -0.951568 0.783112 -0.492168 1.442607 -9.514308 -1.363214 4.355838 -3.019117 0.000000 -0.000000 -0.000000 -43.781905 -1.754374 -9.698231 31.431103 3.367146 -4.181902 -9.002578 -0.593814 9.569104 -1.664433 0.000009 -0.000002 -0.000000 -0.000000 -0.000000 
-5.757107 82.280815 -6.803666 -75.375987 -111.169552 -72.739138 12.046479 2.004802 0.162796 14.718805 1.641872 -0.957207 14.728956 1.653188 -0.777820 3.207928 -1.110143 -1.924099 12.210724 -9.260861 7.001019 -0.000002 0.000000 -0.000001 -9.723881 -36.597533 -12.372912 -26.987276 -12.120818 -59.938974 -0.000024 -47.541549 -0.000026 -36.318202 42.236691 31.693656 16.554333 15.758221 -58.616349 7.457624 5.626930 -105.962844 3.796160 5.479525 -69.406361 0.000002 0.000002 0.000002 -18.361200 -0.327336 -4.347056 15.742321 2.027035 9.774930 -19.014277 -4.196066 2.297153 -0.000000 -0.000000 0.000000 -11.355049 36.828042 16.288162 -45.967774 5.907392 61.047787 0.000008 17.090078 -0.000011 -44.939243 -18.651850 -16.256364 1.781170 9.260707 -10.424131 -5.645300 -9.781779 3.760270 2.033481 5.579510 -14.139555 0.000001 0.000000 -0.000001 -4.967670 -4.989131 77.932950 4.257383 -4.640014 85.070218 1.904940 -3.758372 53.744348 0.000003 -0.000002 -0.000006 -43.378156 1.513305 10.216136 23.643120 -0.248818 0.587264 -0.119429 1.537628 -10.229690 -1.291387 4.170623 -2.898023 0.000000 -0.000000 0.000000 -43.169231 -1.487662 -8.563286 31.578792 3.475258 -4.170615 -9.142119 -0.495197 8.815151 -1.687197 -0.000014 -0.000002 -0.000000 0.000000 -0.000000 
-5.694403 82.394806 -7.793998 -72.296869 -110.796535 -69.735282 11.913696 1.905264 -0.089852 15.171853 1.527187 -1.295326 15.181923 1.555510 -1.095300 3.083113 -1.096465 -2.214283 12.075769 -9.550286 6.782181 0.000000 0.000001 0.000001 -9.801505 -38.779376 -10.911945 -28.872470 -9.827312 -59.389554 0.000033 -46.733708 0.000027 -34.169848 45.495436 30.170735 17.776744 16.388585 -59.048256 7.458639 5.626633 -105.973301 3.795471 5.479269 -69.399059 0.000001 -0.000000 -0.000002 -18.229329 1.608405 -3.138308 15.742321 2.027033 9.774934 -19.014280 -4.196077 2.297146 0.000000 0.000000 0.000001 -11.929631 39.145931 16.813638 -48.730873 3.705134 59.277962 -0.000003 15.493840 -0.000006 -45.870413 -19.606384 -16.497451 1.781169 9.260706 -10.424131 -5.645308 -9.781767 3.760259 2.033479 5.579497 -14.139555 0.000000 -0.000001 0.000000 -4.967670 -4.989133 77.932950 4.257384 -4.640011 85.070218 1.904935 -3.758384 53.744348 -0.000001 -0.000002 -0.000002 -42.043428 1.765317 11.549537 23.176720 0.763111 0.413843 0.079851 1.637388 -10.885700 -1.252274 3.979476 -2.762980 0.000000 -0.000000 -0.000000 -42.605941 -1.236017 -7.395595 31.549163 3.993396 -4.026486 -8.806245 -0.389232 8.229633 -1.677557 -0.000023 0.000005 -0.000000 -0.000000 -0.000000 
